<svg width="34" height="33" viewBox="0 0 34 33" fill="none" xmlns="http://www.w3.org/2000/svg">
<g clip-path="url(#clip0_1_703)" filter="url(#filter0_d_1_703)">
<path d="M28.25 5.625H5.75C5.50136 5.625 5.2629 5.72377 5.08709 5.89959C4.91127 6.0754 4.8125 6.31386 4.8125 6.5625V22.5C4.8125 22.9973 5.01004 23.4742 5.36167 23.8258C5.71331 24.1775 6.19022 24.375 6.6875 24.375H27.3125C27.8098 24.375 28.2867 24.1775 28.6383 23.8258C28.99 23.4742 29.1875 22.9973 29.1875 22.5V6.5625C29.1875 6.31386 29.0887 6.0754 28.9129 5.89959C28.7371 5.72377 28.4986 5.625 28.25 5.625ZM27.3125 22.5H6.6875V8.69531L16.3672 17.5664C16.54 17.7245 16.7658 17.8122 17 17.8122C17.2342 17.8122 17.46 17.7245 17.6328 17.5664L27.3125 8.69531V22.5Z" fill="#666666"/>
</g>
<defs>
<filter id="filter0_d_1_703" x="-2" y="0" width="38" height="38" filterUnits="userSpaceOnUse" color-interpolation-filters="sRGB">
<feFlood flood-opacity="0" result="BackgroundImageFix"/>
<feColorMatrix in="SourceAlpha" type="matrix" values="0 0 0 0 0 0 0 0 0 0 0 0 0 0 0 0 0 0 127 0" result="hardAlpha"/>
<feOffset dy="4"/>
<feGaussianBlur stdDeviation="2"/>
<feComposite in2="hardAlpha" operator="out"/>
<feColorMatrix type="matrix" values="0 0 0 0 0 0 0 0 0 0 0 0 0 0 0 0 0 0 0.25 0"/>
<feBlend mode="normal" in2="BackgroundImageFix" result="effect1_dropShadow_1_703"/>
<feBlend mode="normal" in="SourceGraphic" in2="effect1_dropShadow_1_703" result="shape"/>
</filter>
<clipPath id="clip0_1_703">
<rect width="30" height="30" fill="white" transform="translate(2)"/>
</clipPath>
</defs>
</svg>
