<svg width="38" height="33" viewBox="0 0 38 33" fill="none" xmlns="http://www.w3.org/2000/svg">
<g clip-path="url(#clip0_1_719)" filter="url(#filter0_d_1_719)">
<path d="M18.2031 18.5039C19.4609 17.6683 20.4163 16.45 20.9279 15.0293C21.4395 13.6085 21.4801 12.0608 21.0437 10.6151C20.6073 9.16951 19.7171 7.90278 18.5048 7.00242C17.2925 6.10206 15.8226 5.61591 14.3125 5.61591C12.8024 5.61591 11.3325 6.10206 10.1202 7.00242C8.90789 7.90278 8.01767 9.16951 7.58126 10.6151C7.14485 12.0608 7.18545 13.6085 7.69704 15.0293C8.20863 16.45 9.16403 17.6683 10.4219 18.5039C8.27612 19.293 6.42351 20.7202 5.11326 22.5937C5.01092 22.7327 4.95 22.8978 4.93756 23.0699C4.92512 23.242 4.96166 23.4142 5.04295 23.5664C5.12328 23.7176 5.24304 23.8443 5.38951 23.933C5.53599 24.0217 5.70374 24.0692 5.87498 24.0703H22.75C22.9212 24.0692 23.089 24.0217 23.2355 23.933C23.3819 23.8443 23.5017 23.7176 23.582 23.5664C23.6633 23.4142 23.6999 23.242 23.6874 23.0699C23.675 22.8978 23.614 22.7327 23.5117 22.5937C22.2015 20.7202 20.3488 19.293 18.2031 18.5039Z" fill="#666666"/>
<path d="M33.0742 22.5938C31.7565 20.7225 29.901 19.2962 27.7539 18.5039C29.0157 17.6715 29.9751 16.454 30.4894 15.0326C31.0036 13.6111 31.0453 12.0616 30.6081 10.6145C30.171 9.16749 29.2784 7.90022 28.0632 7.00123C26.8479 6.10223 25.3749 5.61956 23.8633 5.625C23.2181 5.62842 22.5761 5.71507 21.9531 5.88281C21.8068 5.92676 21.6731 6.00497 21.563 6.11095C21.4529 6.21693 21.3697 6.34762 21.3203 6.49219C21.2731 6.63557 21.2613 6.78822 21.2858 6.93715C21.3103 7.08609 21.3704 7.22692 21.4609 7.34766C22.5208 8.77169 23.1297 10.4806 23.2091 12.254C23.2884 14.0274 22.8346 15.7839 21.9062 17.2969C21.7872 17.4979 21.7465 17.7358 21.7919 17.965C21.8373 18.1942 21.9656 18.3986 22.1523 18.5391C22.5039 18.8125 22.8437 19.0938 23.1719 19.3828L23.2305 19.4414C24.4813 20.5989 25.4961 21.9878 26.2187 23.5313C26.2929 23.6925 26.4119 23.8291 26.5615 23.9247C26.7111 24.0203 26.885 24.0708 27.0625 24.0703H32.3008C32.472 24.0692 32.6398 24.0218 32.7862 23.933C32.9327 23.8443 33.0525 23.7176 33.1328 23.5664C33.2131 23.4145 33.2501 23.2434 33.2398 23.0719C33.2295 22.9003 33.1722 22.7349 33.0742 22.5938Z" fill="#666666"/>
</g>
<defs>
<filter id="filter0_d_1_719" x="0" y="0" width="38" height="38" filterUnits="userSpaceOnUse" color-interpolation-filters="sRGB">
<feFlood flood-opacity="0" result="BackgroundImageFix"/>
<feColorMatrix in="SourceAlpha" type="matrix" values="0 0 0 0 0 0 0 0 0 0 0 0 0 0 0 0 0 0 127 0" result="hardAlpha"/>
<feOffset dy="4"/>
<feGaussianBlur stdDeviation="2"/>
<feComposite in2="hardAlpha" operator="out"/>
<feColorMatrix type="matrix" values="0 0 0 0 0 0 0 0 0 0 0 0 0 0 0 0 0 0 0.25 0"/>
<feBlend mode="normal" in2="BackgroundImageFix" result="effect1_dropShadow_1_719"/>
<feBlend mode="normal" in="SourceGraphic" in2="effect1_dropShadow_1_719" result="shape"/>
</filter>
<clipPath id="clip0_1_719">
<rect width="30" height="30" fill="white" transform="translate(4)"/>
</clipPath>
</defs>
</svg>
