<svg width="32" height="35" viewBox="0 0 32 35" fill="none" xmlns="http://www.w3.org/2000/svg">
<g clip-path="url(#clip0_1_726)" filter="url(#filter0_d_1_726)">
<path d="M16 17.8125C16.7767 17.8125 17.4062 17.1829 17.4062 16.4062C17.4062 15.6296 16.7767 15 16 15C15.2233 15 14.5938 15.6296 14.5938 16.4062C14.5938 17.1829 15.2233 17.8125 16 17.8125Z" fill="#666666"/>
<path d="M25.375 9.375H21.1562V6.09375C21.1562 4.72623 20.613 3.41472 19.646 2.44773C18.679 1.48075 17.3675 0.9375 16 0.9375C14.6325 0.9375 13.321 1.48075 12.354 2.44773C11.387 3.41472 10.8438 4.72623 10.8438 6.09375V9.375H6.625C6.12772 9.375 5.65081 9.57254 5.29917 9.92418C4.94754 10.2758 4.75 10.7527 4.75 11.25V24.375C4.75 24.8723 4.94754 25.3492 5.29917 25.7008C5.65081 26.0525 6.12772 26.25 6.625 26.25H25.375C25.8723 26.25 26.3492 26.0525 26.7008 25.7008C27.0525 25.3492 27.25 24.8723 27.25 24.375V11.25C27.25 10.7527 27.0525 10.2758 26.7008 9.92418C26.3492 9.57254 25.8723 9.375 25.375 9.375ZM16.9375 19.5469V21.5625C16.9375 21.8111 16.8387 22.0496 16.6629 22.2254C16.4871 22.4012 16.2486 22.5 16 22.5C15.7514 22.5 15.5129 22.4012 15.3371 22.2254C15.1613 22.0496 15.0625 21.8111 15.0625 21.5625V19.5469C14.3072 19.3217 13.6582 18.8321 13.2341 18.1678C12.8101 17.5034 12.6393 16.7086 12.7531 15.9287C12.8669 15.1488 13.2576 14.4359 13.8538 13.9204C14.45 13.4049 15.2118 13.1212 16 13.1212C16.7882 13.1212 17.55 13.4049 18.1462 13.9204C18.7424 14.4359 19.1331 15.1488 19.2469 15.9287C19.3607 16.7086 19.1899 17.5034 18.7659 18.1678C18.3418 18.8321 17.6928 19.3217 16.9375 19.5469ZM19.2812 9.375H12.7188V6.09375C12.7188 5.22351 13.0645 4.38891 13.6798 3.77356C14.2952 3.1582 15.1298 2.8125 16 2.8125C16.8702 2.8125 17.7048 3.1582 18.3202 3.77356C18.9355 4.38891 19.2812 5.22351 19.2812 6.09375V9.375Z" fill="#666666"/>
</g>
<defs>
<filter id="filter0_d_1_726" x="-3" y="0" width="38" height="38" filterUnits="userSpaceOnUse" color-interpolation-filters="sRGB">
<feFlood flood-opacity="0" result="BackgroundImageFix"/>
<feColorMatrix in="SourceAlpha" type="matrix" values="0 0 0 0 0 0 0 0 0 0 0 0 0 0 0 0 0 0 127 0" result="hardAlpha"/>
<feOffset dy="4"/>
<feGaussianBlur stdDeviation="2"/>
<feComposite in2="hardAlpha" operator="out"/>
<feColorMatrix type="matrix" values="0 0 0 0 0 0 0 0 0 0 0 0 0 0 0 0 0 0 0.25 0"/>
<feBlend mode="normal" in2="BackgroundImageFix" result="effect1_dropShadow_1_726"/>
<feBlend mode="normal" in="SourceGraphic" in2="effect1_dropShadow_1_726" result="shape"/>
</filter>
<clipPath id="clip0_1_726">
<rect width="30" height="30" fill="white" transform="translate(1)"/>
</clipPath>
</defs>
</svg>
