<svg width="32" height="37" viewBox="0 0 32 37" fill="none" xmlns="http://www.w3.org/2000/svg">
<g clip-path="url(#clip0_1_723)" filter="url(#filter0_d_1_723)">
<path d="M25.375 4.6875H6.625C6.12772 4.6875 5.65081 4.88504 5.29917 5.23667C4.94754 5.58831 4.75 6.06522 4.75 6.5625V13.4414C4.75 23.918 13.6328 27.3984 15.4141 27.9844C15.7947 28.1096 16.2053 28.1096 16.5859 27.9844C18.3672 27.3984 27.25 23.918 27.25 13.4414V6.5625C27.25 6.06522 27.0525 5.58831 26.7008 5.23667C26.3492 4.88504 25.8723 4.6875 25.375 4.6875ZM16 26.2031C14.5117 25.7109 7.52734 22.9688 6.70703 15H16V6.5625H25.375V13.4414C25.3778 13.9621 25.3504 14.4825 25.293 15H16V26.2031Z" fill="#666666"/>
</g>
<defs>
<filter id="filter0_d_1_723" x="-3" y="0" width="38" height="38" filterUnits="userSpaceOnUse" color-interpolation-filters="sRGB">
<feFlood flood-opacity="0" result="BackgroundImageFix"/>
<feColorMatrix in="SourceAlpha" type="matrix" values="0 0 0 0 0 0 0 0 0 0 0 0 0 0 0 0 0 0 127 0" result="hardAlpha"/>
<feOffset dy="4"/>
<feGaussianBlur stdDeviation="2"/>
<feComposite in2="hardAlpha" operator="out"/>
<feColorMatrix type="matrix" values="0 0 0 0 0 0 0 0 0 0 0 0 0 0 0 0 0 0 0.25 0"/>
<feBlend mode="normal" in2="BackgroundImageFix" result="effect1_dropShadow_1_723"/>
<feBlend mode="normal" in="SourceGraphic" in2="effect1_dropShadow_1_723" result="shape"/>
</filter>
<clipPath id="clip0_1_723">
<rect width="30" height="30" fill="white" transform="translate(1)"/>
</clipPath>
</defs>
</svg>
